<?xml version="1.0" encoding="UTF-8" standalone="no"?>
<!DOCTYPE svg PUBLIC "-//W3C//DTD SVG 1.1//EN"
 "http://www.w3.org/Graphics/SVG/1.1/DTD/svg11.dtd">
<!-- Generated by graphviz version 2.43.0 (0)
 -->
<!-- Title: G Pages: 1 -->
<svg width="771pt" height="417pt"
 viewBox="0.00 0.00 771.00 417.00" xmlns="http://www.w3.org/2000/svg" xmlns:xlink="http://www.w3.org/1999/xlink">
<g id="graph0" class="graph" transform="scale(1 1) rotate(0) translate(4 413)">
<title>G</title>
<polygon fill="white" stroke="transparent" points="-4,4 -4,-413 767,-413 767,4 -4,4"/>
<!-- 0 -->
<g id="node1" class="node">
<title>0</title>
<polygon fill="none" stroke="black" points="290,-409 237,-409 237,-356 290,-356 290,-409"/>
<text text-anchor="middle" x="263.5" y="-378.8" font-family="Times,serif" font-size="14.00">2281</text>
</g>
<!-- 1 -->
<g id="node2" class="node">
<title>1</title>
<polygon fill="none" stroke="black" points="254,-320 201,-320 201,-267 254,-267 254,-320"/>
<text text-anchor="middle" x="227.5" y="-289.8" font-family="Times,serif" font-size="14.00">2282</text>
</g>
<!-- 0&#45;&gt;1 -->
<g id="edge1" class="edge">
<title>0&#45;&gt;1</title>
<path fill="none" stroke="black" d="M252.89,-355.87C249.48,-347.62 245.64,-338.34 242,-329.54"/>
<polygon fill="black" stroke="black" points="245.21,-328.15 238.16,-320.25 238.74,-330.83 245.21,-328.15"/>
</g>
<!-- 6 -->
<g id="node7" class="node">
<title>6</title>
<polygon fill="none" stroke="black" points="148,-320 95,-320 95,-267 148,-267 148,-320"/>
<text text-anchor="middle" x="121.5" y="-289.8" font-family="Times,serif" font-size="14.00">2048</text>
</g>
<!-- 0&#45;&gt;6 -->
<g id="edge4" class="edge">
<title>0&#45;&gt;6</title>
<path fill="none" stroke="black" d="M236.79,-365.14C214.18,-351.28 181.59,-331.32 156.83,-316.14"/>
<polygon fill="black" stroke="black" points="158.44,-313.03 148.09,-310.79 154.79,-319 158.44,-313.03"/>
</g>
<!-- 7 -->
<g id="node8" class="node">
<title>7</title>
<polygon fill="none" stroke="black" points="435,-320 382,-320 382,-267 435,-267 435,-320"/>
<text text-anchor="middle" x="408.5" y="-289.8" font-family="Times,serif" font-size="14.00">2510</text>
</g>
<!-- 0&#45;&gt;7 -->
<g id="edge5" class="edge">
<title>0&#45;&gt;7</title>
<path fill="none" stroke="black" d="M290.1,-365.54C313.35,-351.59 347.32,-331.21 372.91,-315.85"/>
<polygon fill="black" stroke="black" points="374.81,-318.8 381.58,-310.65 371.21,-312.79 374.81,-318.8"/>
</g>
<!-- 8 -->
<g id="node9" class="node">
<title>8</title>
<polygon fill="none" stroke="black" points="345,-320 292,-320 292,-267 345,-267 345,-320"/>
<text text-anchor="middle" x="318.5" y="-289.8" font-family="Times,serif" font-size="14.00">3100</text>
</g>
<!-- 0&#45;&gt;8 -->
<g id="edge6" class="edge">
<title>0&#45;&gt;8</title>
<path fill="none" stroke="black" d="M279.7,-355.87C285.03,-347.45 291.03,-337.95 296.7,-328.98"/>
<polygon fill="black" stroke="black" points="299.84,-330.57 302.22,-320.25 293.92,-326.83 299.84,-330.57"/>
</g>
<!-- 2 -->
<g id="node3" class="node">
<title>2</title>
<polygon fill="none" stroke="black" points="183,-231 130,-231 130,-178 183,-178 183,-231"/>
<text text-anchor="middle" x="156.5" y="-200.8" font-family="Times,serif" font-size="14.00">2283</text>
</g>
<!-- 1&#45;&gt;2 -->
<g id="edge2" class="edge">
<title>1&#45;&gt;2</title>
<path fill="none" stroke="black" d="M206.58,-266.87C199.49,-258.18 191.47,-248.35 183.95,-239.14"/>
<polygon fill="black" stroke="black" points="186.55,-236.78 177.51,-231.25 181.13,-241.21 186.55,-236.78"/>
</g>
<!-- 9 -->
<g id="node10" class="node">
<title>9</title>
<polygon fill="none" stroke="black" points="112,-231 59,-231 59,-178 112,-178 112,-231"/>
<text text-anchor="middle" x="85.5" y="-200.8" font-family="Times,serif" font-size="14.00">2049</text>
</g>
<!-- 1&#45;&gt;9 -->
<g id="edge8" class="edge">
<title>1&#45;&gt;9</title>
<path fill="none" stroke="black" d="M200.64,-278.12C178.71,-266.12 147.1,-248.26 120.5,-231 120.41,-230.94 120.33,-230.89 120.24,-230.83"/>
<polygon fill="black" stroke="black" points="122.29,-227.99 112.04,-225.29 118.37,-233.79 122.29,-227.99"/>
</g>
<!-- 14 -->
<g id="node15" class="node">
<title>14</title>
<polygon fill="none" stroke="black" points="254,-231 201,-231 201,-178 254,-178 254,-231"/>
<text text-anchor="middle" x="227.5" y="-200.8" font-family="Times,serif" font-size="14.00">3443</text>
</g>
<!-- 1&#45;&gt;14 -->
<g id="edge9" class="edge">
<title>1&#45;&gt;14</title>
<path fill="none" stroke="black" d="M227.5,-266.87C227.5,-258.89 227.5,-249.93 227.5,-241.38"/>
<polygon fill="black" stroke="black" points="231,-241.25 227.5,-231.25 224,-241.25 231,-241.25"/>
</g>
<!-- 15 -->
<g id="node16" class="node">
<title>15</title>
<polygon fill="none" stroke="black" points="325,-231 272,-231 272,-178 325,-178 325,-231"/>
<text text-anchor="middle" x="298.5" y="-200.8" font-family="Times,serif" font-size="14.00">4450</text>
</g>
<!-- 1&#45;&gt;15 -->
<g id="edge10" class="edge">
<title>1&#45;&gt;15</title>
<path fill="none" stroke="black" d="M248.42,-266.87C255.51,-258.18 263.53,-248.35 271.05,-239.14"/>
<polygon fill="black" stroke="black" points="273.87,-241.21 277.49,-231.25 268.45,-236.78 273.87,-241.21"/>
</g>
<!-- 3 -->
<g id="node4" class="node">
<title>3</title>
<polygon fill="none" stroke="black" points="506,-409 453,-409 453,-356 506,-356 506,-409"/>
<text text-anchor="middle" x="479.5" y="-378.8" font-family="Times,serif" font-size="14.00">1101</text>
</g>
<!-- 4 -->
<g id="node5" class="node">
<title>4</title>
<polygon fill="none" stroke="black" points="506,-320 453,-320 453,-267 506,-267 506,-320"/>
<text text-anchor="middle" x="479.5" y="-289.8" font-family="Times,serif" font-size="14.00">1102</text>
</g>
<!-- 3&#45;&gt;4 -->
<g id="edge3" class="edge">
<title>3&#45;&gt;4</title>
<path fill="none" stroke="black" d="M479.5,-355.87C479.5,-347.89 479.5,-338.93 479.5,-330.38"/>
<polygon fill="black" stroke="black" points="483,-330.25 479.5,-320.25 476,-330.25 483,-330.25"/>
</g>
<!-- 5 -->
<g id="node6" class="node">
<title>5</title>
<polygon fill="none" stroke="black" points="577,-409 524,-409 524,-356 577,-356 577,-409"/>
<text text-anchor="middle" x="550.5" y="-378.8" font-family="Times,serif" font-size="14.00">3000</text>
</g>
<!-- 6&#45;&gt;9 -->
<g id="edge7" class="edge">
<title>6&#45;&gt;9</title>
<path fill="none" stroke="black" d="M110.89,-266.87C107.48,-258.62 103.64,-249.34 100,-240.54"/>
<polygon fill="black" stroke="black" points="103.21,-239.15 96.16,-231.25 96.74,-241.83 103.21,-239.15"/>
</g>
<!-- 10 -->
<g id="node11" class="node">
<title>10</title>
<polygon fill="none" stroke="black" points="435,-231 382,-231 382,-178 435,-178 435,-231"/>
<text text-anchor="middle" x="408.5" y="-200.8" font-family="Times,serif" font-size="14.00">3514</text>
</g>
<!-- 7&#45;&gt;10 -->
<g id="edge12" class="edge">
<title>7&#45;&gt;10</title>
<path fill="none" stroke="black" d="M408.5,-266.87C408.5,-258.89 408.5,-249.93 408.5,-241.38"/>
<polygon fill="black" stroke="black" points="412,-241.25 408.5,-231.25 405,-241.25 412,-241.25"/>
</g>
<!-- 11 -->
<g id="node12" class="node">
<title>11</title>
<polygon fill="none" stroke="black" points="506,-231 453,-231 453,-178 506,-178 506,-231"/>
<text text-anchor="middle" x="479.5" y="-200.8" font-family="Times,serif" font-size="14.00">3103</text>
</g>
<!-- 7&#45;&gt;11 -->
<g id="edge11" class="edge">
<title>7&#45;&gt;11</title>
<path fill="none" stroke="black" d="M429.42,-266.87C436.51,-258.18 444.53,-248.35 452.05,-239.14"/>
<polygon fill="black" stroke="black" points="454.87,-241.21 458.49,-231.25 449.45,-236.78 454.87,-241.21"/>
</g>
<!-- 12 -->
<g id="node13" class="node">
<title>12</title>
<polygon fill="none" stroke="black" points="408,-142 355,-142 355,-89 408,-89 408,-142"/>
<text text-anchor="middle" x="381.5" y="-111.8" font-family="Times,serif" font-size="14.00">4530</text>
</g>
<!-- 8&#45;&gt;12 -->
<g id="edge13" class="edge">
<title>8&#45;&gt;12</title>
<path fill="none" stroke="black" d="M327.66,-266.91C338.53,-236.54 356.72,-185.74 368.91,-151.68"/>
<polygon fill="black" stroke="black" points="372.25,-152.72 372.33,-142.12 365.66,-150.36 372.25,-152.72"/>
</g>
<!-- 10&#45;&gt;12 -->
<g id="edge14" class="edge">
<title>10&#45;&gt;12</title>
<path fill="none" stroke="black" d="M400.55,-177.87C398.01,-169.71 395.17,-160.54 392.46,-151.82"/>
<polygon fill="black" stroke="black" points="395.8,-150.76 389.49,-142.25 389.11,-152.84 395.8,-150.76"/>
</g>
<!-- 13 -->
<g id="node14" class="node">
<title>13</title>
<polygon fill="none" stroke="black" points="506,-142 453,-142 453,-89 506,-89 506,-142"/>
<text text-anchor="middle" x="479.5" y="-111.8" font-family="Times,serif" font-size="14.00">3201</text>
</g>
<!-- 10&#45;&gt;13 -->
<g id="edge15" class="edge">
<title>10&#45;&gt;13</title>
<path fill="none" stroke="black" d="M429.42,-177.87C436.51,-169.18 444.53,-159.35 452.05,-150.14"/>
<polygon fill="black" stroke="black" points="454.87,-152.21 458.49,-142.25 449.45,-147.78 454.87,-152.21"/>
</g>
<!-- 11&#45;&gt;12 -->
<g id="edge16" class="edge">
<title>11&#45;&gt;12</title>
<path fill="none" stroke="black" d="M452.98,-179.96C441.54,-169.8 428.01,-157.79 415.82,-146.97"/>
<polygon fill="black" stroke="black" points="417.84,-144.08 408.04,-140.06 413.2,-149.32 417.84,-144.08"/>
</g>
<!-- 11&#45;&gt;13 -->
<g id="edge17" class="edge">
<title>11&#45;&gt;13</title>
<path fill="none" stroke="black" d="M479.5,-177.87C479.5,-169.89 479.5,-160.93 479.5,-152.38"/>
<polygon fill="black" stroke="black" points="483,-152.25 479.5,-142.25 476,-152.25 483,-152.25"/>
</g>
<!-- 17 -->
<g id="node18" class="node">
<title>17</title>
<polygon fill="none" stroke="black" points="266,-53 213,-53 213,0 266,0 266,-53"/>
<text text-anchor="middle" x="239.5" y="-22.8" font-family="Times,serif" font-size="14.00">4400</text>
</g>
<!-- 12&#45;&gt;17 -->
<g id="edge19" class="edge">
<title>12&#45;&gt;17</title>
<path fill="none" stroke="black" d="M354.64,-100.12C332.71,-88.12 301.1,-70.26 274.5,-53 274.41,-52.94 274.33,-52.89 274.24,-52.83"/>
<polygon fill="black" stroke="black" points="276.29,-49.99 266.04,-47.29 272.37,-55.79 276.29,-49.99"/>
</g>
<!-- 19 -->
<g id="node20" class="node">
<title>19</title>
<polygon fill="none" stroke="black" points="53,-53 0,-53 0,0 53,0 53,-53"/>
<text text-anchor="middle" x="26.5" y="-22.8" font-family="Times,serif" font-size="14.00">4419</text>
</g>
<!-- 12&#45;&gt;19 -->
<g id="edge20" class="edge">
<title>12&#45;&gt;19</title>
<path fill="none" stroke="black" d="M354.63,-113.28C299.72,-109.98 171.27,-98.1 62.75,-52.81"/>
<polygon fill="black" stroke="black" points="63.88,-49.49 53.31,-48.77 61.12,-55.93 63.88,-49.49"/>
</g>
<!-- 20 -->
<g id="node21" class="node">
<title>20</title>
<polygon fill="none" stroke="black" points="124,-53 71,-53 71,0 124,0 124,-53"/>
<text text-anchor="middle" x="97.5" y="-22.8" font-family="Times,serif" font-size="14.00">4600</text>
</g>
<!-- 12&#45;&gt;20 -->
<g id="edge21" class="edge">
<title>12&#45;&gt;20</title>
<path fill="none" stroke="black" d="M354.94,-111.37C309.84,-105.35 215.9,-89.72 133.59,-52.85"/>
<polygon fill="black" stroke="black" points="134.93,-49.62 124.38,-48.62 132,-55.98 134.93,-49.62"/>
</g>
<!-- 21 -->
<g id="node22" class="node">
<title>21</title>
<polygon fill="none" stroke="black" points="195,-53 142,-53 142,0 195,0 195,-53"/>
<text text-anchor="middle" x="168.5" y="-22.8" font-family="Times,serif" font-size="14.00">4020</text>
</g>
<!-- 12&#45;&gt;21 -->
<g id="edge22" class="edge">
<title>12&#45;&gt;21</title>
<path fill="none" stroke="black" d="M354.86,-107.96C320.96,-99.08 260.87,-81.47 204.18,-52.8"/>
<polygon fill="black" stroke="black" points="205.6,-49.59 195.11,-48.1 202.38,-55.81 205.6,-49.59"/>
</g>
<!-- 23 -->
<g id="node24" class="node">
<title>23</title>
<polygon fill="none" stroke="black" points="550,-53 497,-53 497,0 550,0 550,-53"/>
<text text-anchor="middle" x="523.5" y="-22.8" font-family="Times,serif" font-size="14.00">7777</text>
</g>
<!-- 12&#45;&gt;23 -->
<g id="edge23" class="edge">
<title>12&#45;&gt;23</title>
<path fill="none" stroke="black" d="M408.03,-99.99C429.72,-87.91 461.01,-70.02 487.5,-53 487.79,-52.81 488.08,-52.63 488.37,-52.44"/>
<polygon fill="black" stroke="black" points="490.58,-55.18 496.95,-46.71 486.69,-49.35 490.58,-55.18"/>
</g>
<!-- 24 -->
<g id="node25" class="node">
<title>24</title>
<polygon fill="none" stroke="black" points="621,-53 568,-53 568,0 621,0 621,-53"/>
<text text-anchor="middle" x="594.5" y="-22.8" font-family="Times,serif" font-size="14.00">7777</text>
</g>
<!-- 12&#45;&gt;24 -->
<g id="edge25" class="edge">
<title>12&#45;&gt;24</title>
<path fill="none" stroke="black" d="M408.16,-102.94C419.04,-98.38 431.79,-93.23 443.5,-89 493.87,-70.8 510.51,-76.77 558.5,-53 558.7,-52.9 558.89,-52.8 559.09,-52.7"/>
<polygon fill="black" stroke="black" points="560.98,-55.66 567.94,-47.67 557.52,-49.57 560.98,-55.66"/>
</g>
<!-- 25 -->
<g id="node26" class="node">
<title>25</title>
<polygon fill="none" stroke="black" points="692,-53 639,-53 639,0 692,0 692,-53"/>
<text text-anchor="middle" x="665.5" y="-22.8" font-family="Times,serif" font-size="14.00">7777</text>
</g>
<!-- 12&#45;&gt;25 -->
<g id="edge27" class="edge">
<title>12&#45;&gt;25</title>
<path fill="none" stroke="black" d="M408.24,-102.13C419.02,-97.51 431.68,-92.53 443.5,-89 521.59,-65.68 550.7,-85.17 629.37,-52.75"/>
<polygon fill="black" stroke="black" points="630.87,-55.92 638.69,-48.77 628.12,-49.48 630.87,-55.92"/>
</g>
<!-- 26 -->
<g id="node27" class="node">
<title>26</title>
<polygon fill="none" stroke="black" points="337,-53 284,-53 284,0 337,0 337,-53"/>
<text text-anchor="middle" x="310.5" y="-22.8" font-family="Times,serif" font-size="14.00">7777</text>
</g>
<!-- 12&#45;&gt;26 -->
<g id="edge29" class="edge">
<title>12&#45;&gt;26</title>
<path fill="none" stroke="black" d="M360.58,-88.87C353.49,-80.18 345.47,-70.35 337.95,-61.14"/>
<polygon fill="black" stroke="black" points="340.55,-58.78 331.51,-53.25 335.13,-63.21 340.55,-58.78"/>
</g>
<!-- 27 -->
<g id="node28" class="node">
<title>27</title>
<polygon fill="none" stroke="black" points="408,-53 355,-53 355,0 408,0 408,-53"/>
<text text-anchor="middle" x="381.5" y="-22.8" font-family="Times,serif" font-size="14.00">7777</text>
</g>
<!-- 12&#45;&gt;27 -->
<g id="edge31" class="edge">
<title>12&#45;&gt;27</title>
<path fill="none" stroke="black" d="M381.5,-88.87C381.5,-80.89 381.5,-71.93 381.5,-63.38"/>
<polygon fill="black" stroke="black" points="385,-63.25 381.5,-53.25 378,-63.25 385,-63.25"/>
</g>
<!-- 28 -->
<g id="node29" class="node">
<title>28</title>
<polygon fill="none" stroke="black" points="479,-53 426,-53 426,0 479,0 479,-53"/>
<text text-anchor="middle" x="452.5" y="-22.8" font-family="Times,serif" font-size="14.00">7777</text>
</g>
<!-- 12&#45;&gt;28 -->
<g id="edge33" class="edge">
<title>12&#45;&gt;28</title>
<path fill="none" stroke="black" d="M402.42,-88.87C409.51,-80.18 417.53,-70.35 425.05,-61.14"/>
<polygon fill="black" stroke="black" points="427.87,-63.21 431.49,-53.25 422.45,-58.78 427.87,-63.21"/>
</g>
<!-- 16 -->
<g id="node17" class="node">
<title>16</title>
<polygon fill="none" stroke="black" points="763,-53 710,-53 710,0 763,0 763,-53"/>
<text text-anchor="middle" x="736.5" y="-22.8" font-family="Times,serif" font-size="14.00">4205</text>
</g>
<!-- 13&#45;&gt;16 -->
<g id="edge18" class="edge">
<title>13&#45;&gt;16</title>
<path fill="none" stroke="black" d="M506.23,-110.3C547.32,-103.17 628.08,-86.53 700.71,-52.72"/>
<polygon fill="black" stroke="black" points="702.47,-55.76 709.98,-48.29 699.45,-49.44 702.47,-55.76"/>
</g>
<!-- 13&#45;&gt;23 -->
<g id="edge24" class="edge">
<title>13&#45;&gt;23</title>
<path fill="none" stroke="black" d="M492.46,-88.87C496.68,-80.53 501.43,-71.14 505.92,-62.26"/>
<polygon fill="black" stroke="black" points="509.09,-63.75 510.48,-53.25 502.84,-60.59 509.09,-63.75"/>
</g>
<!-- 13&#45;&gt;24 -->
<g id="edge26" class="edge">
<title>13&#45;&gt;24</title>
<path fill="none" stroke="black" d="M506.17,-94.32C522.14,-82.24 542.61,-66.76 559.82,-53.74"/>
<polygon fill="black" stroke="black" points="562.11,-56.39 567.97,-47.57 557.89,-50.81 562.11,-56.39"/>
</g>
<!-- 13&#45;&gt;25 -->
<g id="edge28" class="edge">
<title>13&#45;&gt;25</title>
<path fill="none" stroke="black" d="M506.03,-105.9C535.1,-96.01 582.93,-78.37 630.02,-52.81"/>
<polygon fill="black" stroke="black" points="631.75,-55.85 638.8,-47.94 628.36,-49.73 631.75,-55.85"/>
</g>
<!-- 13&#45;&gt;26 -->
<g id="edge30" class="edge">
<title>13&#45;&gt;26</title>
<path fill="none" stroke="black" d="M452.78,-104.09C427,-93.65 386.94,-76.39 346.01,-52.92"/>
<polygon fill="black" stroke="black" points="347.67,-49.84 337.27,-47.82 344.14,-55.88 347.67,-49.84"/>
</g>
<!-- 13&#45;&gt;27 -->
<g id="edge32" class="edge">
<title>13&#45;&gt;27</title>
<path fill="none" stroke="black" d="M452.98,-90.96C441.54,-80.8 428.01,-68.79 415.82,-57.97"/>
<polygon fill="black" stroke="black" points="417.84,-55.08 408.04,-51.06 413.2,-60.32 417.84,-55.08"/>
</g>
<!-- 13&#45;&gt;28 -->
<g id="edge34" class="edge">
<title>13&#45;&gt;28</title>
<path fill="none" stroke="black" d="M471.55,-88.87C469.01,-80.71 466.17,-71.54 463.46,-62.82"/>
<polygon fill="black" stroke="black" points="466.8,-61.76 460.49,-53.25 460.11,-63.84 466.8,-61.76"/>
</g>
<!-- 18 -->
<g id="node19" class="node">
<title>18</title>
<polygon fill="none" stroke="black" points="648,-409 595,-409 595,-356 648,-356 648,-409"/>
<text text-anchor="middle" x="621.5" y="-378.8" font-family="Times,serif" font-size="14.00">3246</text>
</g>
<!-- 22 -->
<g id="node23" class="node">
<title>22</title>
<polygon fill="none" stroke="black" points="719,-409 666,-409 666,-356 719,-356 719,-409"/>
<text text-anchor="middle" x="692.5" y="-378.8" font-family="Times,serif" font-size="14.00">4250</text>
</g>
</g>
</svg>
