<?xml version="1.0" encoding="UTF-8" standalone="no"?>
<!DOCTYPE svg PUBLIC "-//W3C//DTD SVG 1.1//EN"
 "http://www.w3.org/Graphics/SVG/1.1/DTD/svg11.dtd">
<!-- Generated by graphviz version 2.43.0 (0)
 -->
<!-- Title: G Pages: 1 -->
<svg width="1892pt" height="1240pt"
 viewBox="0.00 0.00 1891.50 1240.00" xmlns="http://www.w3.org/2000/svg" xmlns:xlink="http://www.w3.org/1999/xlink">
<g id="graph0" class="graph" transform="scale(1 1) rotate(0) translate(4 1236)">
<title>G</title>
<polygon fill="white" stroke="transparent" points="-4,4 -4,-1236 1887.5,-1236 1887.5,4 -4,4"/>
<!-- 0 -->
<g id="node1" class="node">
<title>0</title>
<polygon fill="none" stroke="black" points="619,-1159.5 528,-1159.5 528,-1068.5 619,-1068.5 619,-1159.5"/>
<text text-anchor="middle" x="573.5" y="-1110.3" font-family="Times,serif" font-size="14.00">Calculus 1</text>
</g>
<!-- 1 -->
<g id="node2" class="node">
<title>1</title>
<polygon fill="none" stroke="black" points="547,-913 456,-913 456,-822 547,-822 547,-913"/>
<text text-anchor="middle" x="501.5" y="-863.8" font-family="Times,serif" font-size="14.00">Calculus 2</text>
</g>
<!-- 0&#45;&gt;1 -->
<g id="edge1" class="edge">
<title>0&#45;&gt;1</title>
<path fill="none" stroke="black" d="M560.38,-1068.44C548.31,-1027.46 530.39,-966.6 517.49,-922.8"/>
<polygon fill="black" stroke="black" points="520.84,-921.77 514.65,-913.17 514.12,-923.75 520.84,-921.77"/>
</g>
<!-- 6 -->
<g id="node7" class="node">
<title>6</title>
<polygon fill="none" stroke="black" points="331.5,-909.5 247.5,-909.5 247.5,-825.5 331.5,-825.5 331.5,-909.5"/>
<text text-anchor="middle" x="289.5" y="-863.8" font-family="Times,serif" font-size="14.00">Physics 1</text>
</g>
<!-- 0&#45;&gt;6 -->
<g id="edge4" class="edge">
<title>0&#45;&gt;6</title>
<path fill="none" stroke="black" d="M527.87,-1073.72C476.31,-1029.33 392.66,-957.31 339.4,-911.46"/>
<polygon fill="black" stroke="black" points="341.63,-908.76 331.77,-904.89 337.07,-914.07 341.63,-908.76"/>
</g>
<!-- 7 -->
<g id="node8" class="node">
<title>7</title>
<polygon fill="none" stroke="black" points="1013,-960 828,-960 828,-775 1013,-775 1013,-960"/>
<text text-anchor="middle" x="920.5" y="-863.8" font-family="Times,serif" font-size="14.00">Programming Concepts</text>
</g>
<!-- 0&#45;&gt;7 -->
<g id="edge5" class="edge">
<title>0&#45;&gt;7</title>
<path fill="none" stroke="black" d="M619.22,-1080.78C669.87,-1045.09 753.13,-986.43 819.3,-939.81"/>
<polygon fill="black" stroke="black" points="821.53,-942.52 827.69,-933.9 817.5,-936.79 821.53,-942.52"/>
</g>
<!-- 8 -->
<g id="node9" class="node">
<title>8</title>
<polygon fill="none" stroke="black" points="767.5,-946.5 609.5,-946.5 609.5,-788.5 767.5,-788.5 767.5,-946.5"/>
<text text-anchor="middle" x="688.5" y="-863.8" font-family="Times,serif" font-size="14.00">Discrete Structures</text>
</g>
<!-- 0&#45;&gt;8 -->
<g id="edge6" class="edge">
<title>0&#45;&gt;8</title>
<path fill="none" stroke="black" d="M594.46,-1068.44C609.21,-1037.07 629.45,-994.05 647.37,-955.95"/>
<polygon fill="black" stroke="black" points="650.54,-957.43 651.63,-946.89 644.21,-954.45 650.54,-957.43"/>
</g>
<!-- 2 -->
<g id="node3" class="node">
<title>2</title>
<polygon fill="none" stroke="black" points="334,-634.5 243,-634.5 243,-543.5 334,-543.5 334,-634.5"/>
<text text-anchor="middle" x="288.5" y="-585.3" font-family="Times,serif" font-size="14.00">Calculus 3</text>
</g>
<!-- 1&#45;&gt;2 -->
<g id="edge2" class="edge">
<title>1&#45;&gt;2</title>
<path fill="none" stroke="black" d="M455.68,-839.61C420.38,-816.81 372.67,-781.15 342.5,-739 322.35,-710.86 308.97,-674.4 300.56,-644.59"/>
<polygon fill="black" stroke="black" points="303.89,-643.5 297.9,-634.76 297.14,-645.33 303.89,-643.5"/>
</g>
<!-- 9 -->
<g id="node10" class="node">
<title>9</title>
<polygon fill="none" stroke="black" points="224.5,-631 140.5,-631 140.5,-547 224.5,-547 224.5,-631"/>
<text text-anchor="middle" x="182.5" y="-585.3" font-family="Times,serif" font-size="14.00">Physics 2</text>
</g>
<!-- 1&#45;&gt;9 -->
<g id="edge8" class="edge">
<title>1&#45;&gt;9</title>
<path fill="none" stroke="black" d="M455.88,-837.44C424.3,-818.11 380.85,-793.05 340.5,-775 294.7,-754.51 269.07,-774.39 233.5,-739 207.44,-713.07 194.68,-673.28 188.45,-641.34"/>
<polygon fill="black" stroke="black" points="191.85,-640.5 186.64,-631.27 184.96,-641.73 191.85,-640.5"/>
</g>
<!-- 14 -->
<g id="node15" class="node">
<title>14</title>
<polygon fill="none" stroke="black" points="651.5,-739 351.5,-739 351.5,-439 651.5,-439 651.5,-739"/>
<text text-anchor="middle" x="501.5" y="-585.3" font-family="Times,serif" font-size="14.00">Probability and Statistics for Engineers</text>
</g>
<!-- 1&#45;&gt;14 -->
<g id="edge9" class="edge">
<title>1&#45;&gt;14</title>
<path fill="none" stroke="black" d="M501.5,-821.77C501.5,-801.37 501.5,-775.86 501.5,-749.29"/>
<polygon fill="black" stroke="black" points="505,-749.06 501.5,-739.06 498,-749.06 505,-749.06"/>
</g>
<!-- 15 -->
<g id="node16" class="node">
<title>15</title>
<polygon fill="none" stroke="black" points="797.5,-653 669.5,-653 669.5,-525 797.5,-525 797.5,-653"/>
<text text-anchor="middle" x="733.5" y="-585.3" font-family="Times,serif" font-size="14.00">Linear Systems</text>
</g>
<!-- 1&#45;&gt;15 -->
<g id="edge10" class="edge">
<title>1&#45;&gt;15</title>
<path fill="none" stroke="black" d="M546.12,-821.62C562.57,-806.07 581.77,-789.04 600.5,-775 625.38,-756.35 639.46,-761.9 660.5,-739 680.55,-717.18 696.27,-688.83 707.91,-662.73"/>
<polygon fill="black" stroke="black" points="711.26,-663.8 712.01,-653.24 704.83,-661.03 711.26,-663.8"/>
</g>
<!-- 3 -->
<g id="node4" class="node">
<title>3</title>
<polygon fill="none" stroke="black" points="1148,-1173.5 1029,-1173.5 1029,-1054.5 1148,-1054.5 1148,-1173.5"/>
<text text-anchor="middle" x="1088.5" y="-1110.3" font-family="Times,serif" font-size="14.00">Composition 1</text>
</g>
<!-- 4 -->
<g id="node5" class="node">
<title>4</title>
<polygon fill="none" stroke="black" points="1146,-925 1031,-925 1031,-810 1146,-810 1146,-925"/>
<text text-anchor="middle" x="1088.5" y="-863.8" font-family="Times,serif" font-size="14.00">Compostion 2</text>
</g>
<!-- 3&#45;&gt;4 -->
<g id="edge3" class="edge">
<title>3&#45;&gt;4</title>
<path fill="none" stroke="black" d="M1088.5,-1054.44C1088.5,-1018.67 1088.5,-972.8 1088.5,-935.58"/>
<polygon fill="black" stroke="black" points="1092,-935.32 1088.5,-925.32 1085,-935.32 1092,-935.32"/>
</g>
<!-- 5 -->
<g id="node6" class="node">
<title>5</title>
<polygon fill="none" stroke="black" points="1381,-1221.5 1166,-1221.5 1166,-1006.5 1381,-1006.5 1381,-1221.5"/>
<text text-anchor="middle" x="1273.5" y="-1110.3" font-family="Times,serif" font-size="14.00">Foundations of Engineering</text>
</g>
<!-- 6&#45;&gt;9 -->
<g id="edge7" class="edge">
<title>6&#45;&gt;9</title>
<path fill="none" stroke="black" d="M270.32,-825.24C259.07,-800.45 244.87,-768.17 233.5,-739 220.87,-706.62 208.21,-669.65 198.66,-640.64"/>
<polygon fill="black" stroke="black" points="201.98,-639.54 195.55,-631.13 195.33,-641.72 201.98,-639.54"/>
</g>
<!-- 10 -->
<g id="node11" class="node">
<title>10</title>
<polygon fill="none" stroke="black" points="987,-655.5 854,-655.5 854,-522.5 987,-522.5 987,-655.5"/>
<text text-anchor="middle" x="920.5" y="-585.3" font-family="Times,serif" font-size="14.00">Program Design</text>
</g>
<!-- 7&#45;&gt;10 -->
<g id="edge12" class="edge">
<title>7&#45;&gt;10</title>
<path fill="none" stroke="black" d="M920.5,-774.81C920.5,-739.48 920.5,-699.56 920.5,-665.88"/>
<polygon fill="black" stroke="black" points="924,-665.64 920.5,-655.64 917,-665.64 924,-665.64"/>
</g>
<!-- 11 -->
<g id="node12" class="node">
<title>11</title>
<polygon fill="none" stroke="black" points="1190,-681.5 1005,-681.5 1005,-496.5 1190,-496.5 1190,-681.5"/>
<text text-anchor="middle" x="1097.5" y="-585.3" font-family="Times,serif" font-size="14.00">Computer Organization</text>
</g>
<!-- 7&#45;&gt;11 -->
<g id="edge11" class="edge">
<title>7&#45;&gt;11</title>
<path fill="none" stroke="black" d="M979.19,-774.81C996.52,-747.75 1015.57,-717.98 1033.23,-690.4"/>
<polygon fill="black" stroke="black" points="1036.22,-692.22 1038.66,-681.91 1030.33,-688.45 1036.22,-692.22"/>
</g>
<!-- 12 -->
<g id="node13" class="node">
<title>12</title>
<polygon fill="none" stroke="black" points="947,-376 816,-376 816,-245 947,-245 947,-376"/>
<text text-anchor="middle" x="881.5" y="-306.8" font-family="Times,serif" font-size="14.00">Data Structures</text>
</g>
<!-- 8&#45;&gt;12 -->
<g id="edge13" class="edge">
<title>8&#45;&gt;12</title>
<path fill="none" stroke="black" d="M767.71,-796.16C782.85,-778.93 796.94,-759.5 806.5,-739 863.3,-617.19 817.24,-570.61 844.5,-439 848.08,-421.74 852.82,-403.41 857.71,-386.19"/>
<polygon fill="black" stroke="black" points="861.18,-386.78 860.6,-376.2 854.46,-384.83 861.18,-386.78"/>
</g>
<!-- 10&#45;&gt;12 -->
<g id="edge14" class="edge">
<title>10&#45;&gt;12</title>
<path fill="none" stroke="black" d="M911.26,-522.47C905.48,-481.52 898.03,-428.67 892.02,-386.11"/>
<polygon fill="black" stroke="black" points="895.47,-385.49 890.61,-376.08 888.54,-386.47 895.47,-385.49"/>
</g>
<!-- 13 -->
<g id="node14" class="node">
<title>13</title>
<polygon fill="none" stroke="black" points="1190,-403 1005,-403 1005,-218 1190,-218 1190,-403"/>
<text text-anchor="middle" x="1097.5" y="-306.8" font-family="Times,serif" font-size="14.00">Computer Logic Design</text>
</g>
<!-- 10&#45;&gt;13 -->
<g id="edge15" class="edge">
<title>10&#45;&gt;13</title>
<path fill="none" stroke="black" d="M949.96,-522.21C962.77,-495.67 978.69,-465.2 995.5,-439 1001.42,-429.77 1007.88,-420.43 1014.58,-411.2"/>
<polygon fill="black" stroke="black" points="1017.41,-413.26 1020.52,-403.14 1011.77,-409.11 1017.41,-413.26"/>
</g>
<!-- 11&#45;&gt;12 -->
<g id="edge16" class="edge">
<title>11&#45;&gt;12</title>
<path fill="none" stroke="black" d="M1037.57,-496.44C1024.18,-477.14 1009.72,-457.13 995.5,-439 981.07,-420.6 964.73,-401.45 949.02,-383.76"/>
<polygon fill="black" stroke="black" points="951.61,-381.4 942.34,-376.28 946.39,-386.07 951.61,-381.4"/>
</g>
<!-- 11&#45;&gt;13 -->
<g id="edge17" class="edge">
<title>11&#45;&gt;13</title>
<path fill="none" stroke="black" d="M1097.5,-496.31C1097.5,-469.83 1097.5,-440.76 1097.5,-413.68"/>
<polygon fill="black" stroke="black" points="1101,-413.41 1097.5,-403.41 1094,-413.41 1101,-413.41"/>
</g>
<!-- 17 -->
<g id="node18" class="node">
<title>17</title>
<polygon fill="none" stroke="black" points="680,-179.5 503,-179.5 503,-2.5 680,-2.5 680,-179.5"/>
<text text-anchor="middle" x="591.5" y="-87.3" font-family="Times,serif" font-size="14.00">Analysis of Algorithms</text>
</g>
<!-- 12&#45;&gt;17 -->
<g id="edge19" class="edge">
<title>12&#45;&gt;17</title>
<path fill="none" stroke="black" d="M815.74,-269.44C777.82,-245.46 729.82,-213.59 689.5,-182 689.02,-181.62 688.53,-181.24 688.05,-180.86"/>
<polygon fill="black" stroke="black" points="690.16,-178.07 680.18,-174.53 685.78,-183.52 690.16,-178.07"/>
</g>
<!-- 19 -->
<g id="node20" class="node">
<title>19</title>
<polygon fill="none" stroke="black" points="121,-151.5 0,-151.5 0,-30.5 121,-30.5 121,-151.5"/>
<text text-anchor="middle" x="60.5" y="-87.3" font-family="Times,serif" font-size="14.00">Secure Coding</text>
</g>
<!-- 12&#45;&gt;19 -->
<g id="edge20" class="edge">
<title>12&#45;&gt;19</title>
<path fill="none" stroke="black" d="M815.76,-304.45C654.92,-291.14 246.34,-251.28 130.5,-182 120.65,-176.11 111.66,-168.26 103.66,-159.66"/>
<polygon fill="black" stroke="black" points="106.11,-157.14 96.89,-151.92 100.85,-161.75 106.11,-157.14"/>
</g>
<!-- 20 -->
<g id="node21" class="node">
<title>20</title>
<polygon fill="none" stroke="black" points="293.5,-168 139.5,-168 139.5,-14 293.5,-14 293.5,-168"/>
<text text-anchor="middle" x="216.5" y="-87.3" font-family="Times,serif" font-size="14.00">Operating Systems</text>
</g>
<!-- 12&#45;&gt;20 -->
<g id="edge21" class="edge">
<title>12&#45;&gt;20</title>
<path fill="none" stroke="black" d="M815.9,-307.35C703.73,-301.1 470.93,-276.75 302.5,-182 298.31,-179.64 294.19,-177.01 290.17,-174.18"/>
<polygon fill="black" stroke="black" points="292.17,-171.29 282.07,-168.09 287.96,-176.89 292.17,-171.29"/>
</g>
<!-- 21 -->
<g id="node22" class="node">
<title>21</title>
<polygon fill="none" stroke="black" points="485,-177.5 312,-177.5 312,-4.5 485,-4.5 485,-177.5"/>
<text text-anchor="middle" x="398.5" y="-87.3" font-family="Times,serif" font-size="14.00">Software Engineering</text>
</g>
<!-- 12&#45;&gt;21 -->
<g id="edge22" class="edge">
<title>12&#45;&gt;21</title>
<path fill="none" stroke="black" d="M815.67,-297.14C737.48,-280.49 604.7,-245.92 494.01,-181.92"/>
<polygon fill="black" stroke="black" points="495.46,-178.72 485.07,-176.66 491.91,-184.75 495.46,-178.72"/>
</g>
<!-- 23 -->
<g id="node24" class="node">
<title>23</title>
<polygon fill="none" stroke="black" points="1192.5,-146 1082.5,-146 1082.5,-36 1192.5,-36 1192.5,-146"/>
<text text-anchor="middle" x="1137.5" y="-87.3" font-family="Times,serif" font-size="14.00">CSE Elective</text>
</g>
<!-- 12&#45;&gt;23 -->
<g id="edge23" class="edge">
<title>12&#45;&gt;23</title>
<path fill="none" stroke="black" d="M947,-252.46C962.39,-240.34 979.1,-228.15 995.5,-218 1027.96,-197.9 1044.11,-206.38 1073.5,-182 1083.05,-174.08 1091.86,-164.41 1099.69,-154.39"/>
<polygon fill="black" stroke="black" points="1102.56,-156.4 1105.76,-146.3 1096.96,-152.2 1102.56,-156.4"/>
</g>
<!-- 24 -->
<g id="node25" class="node">
<title>24</title>
<polygon fill="none" stroke="black" points="1320.5,-146 1210.5,-146 1210.5,-36 1320.5,-36 1320.5,-146"/>
<text text-anchor="middle" x="1265.5" y="-87.3" font-family="Times,serif" font-size="14.00">CSE Elective</text>
</g>
<!-- 12&#45;&gt;24 -->
<g id="edge25" class="edge">
<title>12&#45;&gt;24</title>
<path fill="none" stroke="black" d="M947.1,-247.78C962.1,-236.35 978.62,-225.63 995.5,-218 1080.19,-179.7 1122.89,-231.59 1201.5,-182 1212.74,-174.91 1222.59,-165.06 1230.97,-154.46"/>
<polygon fill="black" stroke="black" points="1233.92,-156.35 1237.1,-146.25 1228.31,-152.17 1233.92,-156.35"/>
</g>
<!-- 25 -->
<g id="node26" class="node">
<title>25</title>
<polygon fill="none" stroke="black" points="1448.5,-146 1338.5,-146 1338.5,-36 1448.5,-36 1448.5,-146"/>
<text text-anchor="middle" x="1393.5" y="-87.3" font-family="Times,serif" font-size="14.00">CSE Elective</text>
</g>
<!-- 12&#45;&gt;25 -->
<g id="edge27" class="edge">
<title>12&#45;&gt;25</title>
<path fill="none" stroke="black" d="M947.04,-246.69C961.98,-235.41 978.5,-225.03 995.5,-218 1133.49,-160.98 1200.68,-257.48 1329.5,-182 1341.1,-175.2 1351.15,-165.38 1359.62,-154.69"/>
<polygon fill="black" stroke="black" points="1362.64,-156.5 1365.8,-146.39 1357.02,-152.32 1362.64,-156.5"/>
</g>
<!-- 26 -->
<g id="node27" class="node">
<title>26</title>
<polygon fill="none" stroke="black" points="808.5,-146 698.5,-146 698.5,-36 808.5,-36 808.5,-146"/>
<text text-anchor="middle" x="753.5" y="-87.3" font-family="Times,serif" font-size="14.00">CSE Elective</text>
</g>
<!-- 12&#45;&gt;26 -->
<g id="edge29" class="edge">
<title>12&#45;&gt;26</title>
<path fill="none" stroke="black" d="M843.44,-244.83C826.75,-216.47 807.23,-183.29 790.64,-155.11"/>
<polygon fill="black" stroke="black" points="793.46,-152.99 785.37,-146.15 787.42,-156.55 793.46,-152.99"/>
</g>
<!-- 27 -->
<g id="node28" class="node">
<title>27</title>
<polygon fill="none" stroke="black" points="936.5,-146 826.5,-146 826.5,-36 936.5,-36 936.5,-146"/>
<text text-anchor="middle" x="881.5" y="-87.3" font-family="Times,serif" font-size="14.00">CSE Elective</text>
</g>
<!-- 12&#45;&gt;27 -->
<g id="edge31" class="edge">
<title>12&#45;&gt;27</title>
<path fill="none" stroke="black" d="M881.5,-244.83C881.5,-216.84 881.5,-184.16 881.5,-156.21"/>
<polygon fill="black" stroke="black" points="885,-156.15 881.5,-146.15 878,-156.15 885,-156.15"/>
</g>
<!-- 28 -->
<g id="node29" class="node">
<title>28</title>
<polygon fill="none" stroke="black" points="1064.5,-146 954.5,-146 954.5,-36 1064.5,-36 1064.5,-146"/>
<text text-anchor="middle" x="1009.5" y="-87.3" font-family="Times,serif" font-size="14.00">CSE Elective</text>
</g>
<!-- 12&#45;&gt;28 -->
<g id="edge33" class="edge">
<title>12&#45;&gt;28</title>
<path fill="none" stroke="black" d="M919.56,-244.83C936.25,-216.47 955.77,-183.29 972.36,-155.11"/>
<polygon fill="black" stroke="black" points="975.58,-156.55 977.63,-146.15 969.54,-152.99 975.58,-156.55"/>
</g>
<!-- 16 -->
<g id="node17" class="node">
<title>16</title>
<polygon fill="none" stroke="black" points="1648.5,-182 1466.5,-182 1466.5,0 1648.5,0 1648.5,-182"/>
<text text-anchor="middle" x="1557.5" y="-87.3" font-family="Times,serif" font-size="14.00">Computer Architecture</text>
</g>
<!-- 13&#45;&gt;16 -->
<g id="edge18" class="edge">
<title>13&#45;&gt;16</title>
<path fill="none" stroke="black" d="M1190.24,-287.46C1265.66,-267.06 1373.02,-232.25 1457.5,-182 1457.59,-181.94 1457.69,-181.89 1457.78,-181.83"/>
<polygon fill="black" stroke="black" points="1459.9,-184.64 1466.5,-176.35 1456.17,-178.71 1459.9,-184.64"/>
</g>
<!-- 13&#45;&gt;23 -->
<g id="edge24" class="edge">
<title>13&#45;&gt;23</title>
<path fill="none" stroke="black" d="M1114.35,-217.89C1118.17,-197.13 1122.14,-175.51 1125.7,-156.17"/>
<polygon fill="black" stroke="black" points="1129.15,-156.75 1127.52,-146.28 1122.27,-155.48 1129.15,-156.75"/>
</g>
<!-- 13&#45;&gt;24 -->
<g id="edge26" class="edge">
<title>13&#45;&gt;24</title>
<path fill="none" stroke="black" d="M1173.5,-217.8C1183.04,-205.85 1192.58,-193.7 1201.5,-182 1208.24,-173.15 1215.21,-163.7 1221.97,-154.36"/>
<polygon fill="black" stroke="black" points="1224.84,-156.36 1227.83,-146.2 1219.15,-152.28 1224.84,-156.36"/>
</g>
<!-- 13&#45;&gt;25 -->
<g id="edge28" class="edge">
<title>13&#45;&gt;25</title>
<path fill="none" stroke="black" d="M1190.06,-270.56C1235.21,-248.73 1288.49,-218.53 1329.5,-182 1338.65,-173.85 1347.22,-164.16 1354.93,-154.21"/>
<polygon fill="black" stroke="black" points="1357.74,-156.3 1360.93,-146.19 1352.13,-152.1 1357.74,-156.3"/>
</g>
<!-- 13&#45;&gt;26 -->
<g id="edge30" class="edge">
<title>13&#45;&gt;26</title>
<path fill="none" stroke="black" d="M1004.75,-243.86C988.79,-234.3 972.01,-225.25 955.5,-218 897.46,-192.51 869.67,-218 817.5,-182 806.81,-174.63 797.3,-164.85 789.09,-154.47"/>
<polygon fill="black" stroke="black" points="791.86,-152.34 783.06,-146.44 786.26,-156.54 791.86,-152.34"/>
</g>
<!-- 13&#45;&gt;27 -->
<g id="edge32" class="edge">
<title>13&#45;&gt;27</title>
<path fill="none" stroke="black" d="M1004.87,-238.25C984.41,-220.79 963.49,-201.49 945.5,-182 937.57,-173.42 929.8,-163.82 922.54,-154.18"/>
<polygon fill="black" stroke="black" points="925.33,-152.06 916.58,-146.09 919.7,-156.22 925.33,-152.06"/>
</g>
<!-- 13&#45;&gt;28 -->
<g id="edge34" class="edge">
<title>13&#45;&gt;28</title>
<path fill="none" stroke="black" d="M1060.44,-217.89C1051.96,-196.94 1043.13,-175.12 1035.25,-155.64"/>
<polygon fill="black" stroke="black" points="1038.46,-154.24 1031.46,-146.28 1031.97,-156.86 1038.46,-154.24"/>
</g>
<!-- 18 -->
<g id="node19" class="node">
<title>18</title>
<polygon fill="none" stroke="black" points="1629.5,-1229 1399.5,-1229 1399.5,-999 1629.5,-999 1629.5,-1229"/>
<text text-anchor="middle" x="1514.5" y="-1110.3" font-family="Times,serif" font-size="14.00">Communication for Engineers</text>
</g>
<!-- 22 -->
<g id="node23" class="node">
<title>22</title>
<polygon fill="none" stroke="black" points="1883.5,-1232 1647.5,-1232 1647.5,-996 1883.5,-996 1883.5,-1232"/>
<text text-anchor="middle" x="1765.5" y="-1110.3" font-family="Times,serif" font-size="14.00">Ethical Issues &amp; Prof. Conduct</text>
</g>
</g>
</svg>
